<?xml version="1.0" encoding="iso-8859-1"?>
<!-- Generator: Adobe Illustrator 19.0.0, SVG Export Plug-In . SVG Version: 6.00 Build 0)  -->
<svg version="1.1" id="Capa_1" xmlns="http://www.w3.org/2000/svg" xmlns:xlink="http://www.w3.org/1999/xlink" x="0px" y="0px"
	 viewBox="0 0 496 496" style="enable-background:new 0 0 496 496;" xml:space="preserve">
<path style="fill:#F0BC5E;" d="M476,208h-0.688l-13.656-13.656L448,208H40l-5.656-13.656l-13.92,13.92C8.872,210,0,219.984,0,232
	c0,13.232,10.768,24,24,24h9.536L64,243.816V264h33.888l16-8h27.056l8-16h14.112l8,16h34.712l8-24h21.288l8,16H264v16h37.768l8-24
	h5.288l8,16h33.888l8-16h15.744l16,16h32.256l7.112-14.216L454.704,248H476c11.032,0,20-8.968,20-20S487.032,208,476,208z"/>
<path d="M284.664,323.432L278,313.376l-6.664,10.056C266.112,331.304,257.392,336,248,336v16c11.28,0,21.944-4.304,30-11.84
	c1.72,1.608,3.568,3.072,5.536,4.4l8.92-13.28C289.36,329.192,286.736,326.552,284.664,323.432z"/>
<rect x="248" y="384" width="40" height="16"/>
<path d="M458.648,340l-1.464,0.848C466.248,332.776,472,321.064,472,308c0-12.592-5.424-23.472-15.68-31.76
	c4.976-8.512,7.68-18.224,7.68-28.24c0-3.136-0.264-6.272-0.776-9.328l-15.784,2.656c0.376,2.184,0.56,4.424,0.56,6.672
	c0,8.744-2.984,17.088-8.2,24H56.2c-5.216-6.912-8.2-15.256-8.2-24H32c0,10.128,2.752,19.96,7.848,28.544
	C29.76,285.84,24,297.104,24,308c0,13.064,5.752,24.776,14.824,32.848L37.352,340C33.848,346.048,32,352.968,32,360
	c0,10.776,4.328,20.528,11.28,27.728C36.528,391.976,32,399.448,32,408v32c0,30.88,25.12,56,56,56h320c30.88,0,56-25.12,56-56v-32
	c0-8.552-4.528-16.024-11.28-20.272c6.952-7.2,11.28-16.952,11.28-27.728C464,352.968,462.152,346.048,458.648,340z M448,440
	c0,22.056-17.944,40-40,40H88c-22.056,0-40-17.944-40-40v-32c0-4.408,3.592-8,8-8h16h24h30v-16H96H72c-13.232,0-24-10.768-24-24
	c0-4.016,1.072-7.936,2.976-11.432C56.216,350.776,61.968,352,68,352c11.28,0,21.944-4.304,30-11.832
	c8.056,7.528,18.72,11.832,30,11.832v-16c-9.392,0-18.112-4.696-23.336-12.568L98,313.376l-6.664,10.056
	C86.112,331.304,77.392,336,68,336c-15.44,0-28-12.56-28-28c0-6.416,4.048-13.752,10.952-20h394.496
	c7.096,5.368,10.552,11.928,10.552,20c0,15.44-12.56,28-28,28c-9.392,0-18.112-4.696-23.336-12.568L398,313.376l-6.664,10.056
	C386.112,331.304,377.392,336,368,336s-18.112-4.696-23.336-12.568L338,313.384l-6.664,10.048c-1.6,2.408-3.536,4.544-5.776,6.352
	l10.064,12.44c0.816-0.664,1.608-1.344,2.368-2.056C346.056,347.696,356.712,352,368,352c11.28,0,21.944-4.304,30-11.832
	c8.056,7.528,18.72,11.832,30,11.832c6.032,0,11.784-1.224,17.024-3.432C446.928,352.064,448,355.984,448,360
	c0,13.232-10.768,24-24,24h-72h-24v16h24h72h16c4.408,0,8,3.592,8,8V440z"/>
<rect x="168" y="384" width="40" height="16"/>
<path d="M408,192H48.168C52.376,94.24,133.224,16,232,16h32c98.776,0,179.624,78.24,183.832,176H424v16h40v-8
	C464,89.72,374.28,0,264,0h-32C121.72,0,32,89.72,32,200v8h376V192z"/>
<rect x="232" y="40" width="16" height="16"/>
<rect x="288" y="64" width="16" height="16"/>
<rect x="352" y="72" width="16" height="16"/>
<rect x="248" y="104" width="16" height="16"/>
<rect x="184" y="80" width="16" height="16"/>
<rect x="160" y="48" width="16" height="16"/>
<rect x="120" y="96" width="16" height="16"/>
<path style="fill:#F0BC5E;" d="M120,288v108c0,15.44,12.56,28,28,28s28-12.56,28-28v-40c0-6.616,5.384-12,12-12s12,5.384,12,12v80
	c0,15.44,12.56,28,28,28s28-12.56,28-28V332c0-6.616,5.384-12,12-12s12,5.384,12,12v56c0,15.44,12.56,28,28,28s28-12.56,28-28V288
	H120z"/>
</svg>
